<svg id="G" xmlns="http://www.w3.org/2000/svg" width="78" height="78" viewBox="0 0 78 78">
<circle id="Elipse_1" data-name="Elipse 1" cx="39" cy="39" r="39" fill="#009edf"></circle>
<path id="G-2" data-name="G" d="M20.706,28.472,16.138,48.8c-.828,5.266,2.019,7.182,6.944,7.2H45.963c4.677-.034,7.689-1.99,8.471-6.466l2.542-13.119H37.654l-1.879,7.656H38.5c-.17.781-.343,1.57-.513,2.359a2.584,2.584,0,0,1-2.6,1.93,1.474,1.474,0,0,1-1.561-1.96l3.193-15.162c1.029-2.545,4.351-2.108,4.024,0l-.312,1.3H57.825c1.96-5.4,2.257-9.957-5.522-10.426-2.92,0-8.907-.024-14.458-.072-4.6-.038-8.9-.179-10.893.393a8.36,8.36,0,0,0-6.246,6.037Zm0,0" fill="#fff"></path>
</svg>
